<svg xmlns="http://www.w3.org/2000/svg" width="49.592" height="57.165" viewBox="0 0 49.592 57.165">
  <g id="Group_162687" data-name="Group 162687" transform="translate(0 0)">
    <g id="Group_162675" data-name="Group 162675" transform="translate(25.658 0)">
      <path id="Path_20893" data-name="Path 20893" d="M85.677,59.217a2.887,2.887,0,0,1,3.981,3.211,2.95,2.95,0,0,1-4.524,1.8A2.918,2.918,0,0,1,85.677,59.217Z" transform="translate(-83.95 -58.935)" fill="#0aaed7"/>
    </g>
    <g id="Group_162676" data-name="Group 162676" transform="translate(7.483 7.514)">
      <path id="Path_20894" data-name="Path 20894" d="M59.778,70a2.873,2.873,0,0,1,4.445,2.669c.036,2.419-3.425,3.468-4.916,1.741A2.857,2.857,0,0,1,59.778,70Z" transform="translate(-58.478 -69.472)" fill="#1da0dc"/>
      <path id="Path_20895" data-name="Path 20895" d="M110.759,69.9a2.9,2.9,0,1,1-.029,4.945A2.96,2.96,0,0,1,110.759,69.9Z" transform="translate(-73.07 -69.465)" fill="#1da0dc"/>
    </g>
    <g id="Group_162677" data-name="Group 162677" transform="translate(24.233 7.694)">
      <path id="Path_20896" data-name="Path 20896" d="M84.377,70.169a4.337,4.337,0,1,1,.086,7.877C81.137,76.855,81.123,71.446,84.377,70.169Z" transform="translate(-81.952 -69.718)" fill="#219ddd"/>
    </g>
    <g id="Group_162678" data-name="Group 162678" transform="translate(12.522 12.533)">
      <path id="Path_20897" data-name="Path 20897" d="M67.58,77.153a4.382,4.382,0,0,1,6.6,3.189c.6,3.325-3.368,6.079-6.286,4.438A4.415,4.415,0,0,1,67.58,77.153Z" transform="translate(-65.539 -76.503)" fill="#2f94e1"/>
      <path id="Path_20898" data-name="Path 20898" d="M100.492,77.056c2.8-1.7,6.821.728,6.443,4.046.05,3.2-4.01,5.259-6.614,3.489A4.4,4.4,0,0,1,100.492,77.056Z" transform="translate(-74.919 -76.5)" fill="#2f94e1"/>
    </g>
    <g id="Group_162682" data-name="Group 162682" transform="translate(0 24.225)">
      <path id="Path_20907" data-name="Path 20907" d="M61.365,93.253c2.7-1.27,6.279.935,5.986,4,.321,3.289-3.775,5.48-6.472,3.76C57.84,99.475,58.132,94.395,61.365,93.253Z" transform="translate(-51.076 -92.887)" fill="#4f7eea"/>
      <path id="Path_20908" data-name="Path 20908" d="M49.71,95.211a2.874,2.874,0,1,1-.535,4.966A2.888,2.888,0,0,1,49.71,95.211Z" transform="translate(-47.99 -93.475)" fill="#4f7eea"/>
    </g>
    <g id="Group_162683" data-name="Group 162683" transform="translate(12.502 35.872)">
      <path id="Path_20909" data-name="Path 20909" d="M68.357,109.5c3.068-1.284,6.679,1.884,5.715,5.087-.5,3.268-5.1,4.5-7.292,2.119A4.412,4.412,0,0,1,68.357,109.5Z" transform="translate(-65.511 -109.21)" fill="#6e68f2"/>
      <path id="Path_20910" data-name="Path 20910" d="M101.275,109.456c3.082-1.142,6.607,2.112,5.5,5.28-.628,3.318-5.458,4.352-7.492,1.72A4.4,4.4,0,0,1,101.275,109.456Z" transform="translate(-74.89 -109.213)" fill="#6e68f2"/>
    </g>
    <g id="Group_162684" data-name="Group 162684" transform="translate(24.232 40.726)">
      <path id="Path_20911" data-name="Path 20911" d="M84.469,116.439a4.336,4.336,0,1,1-.107,7.87C81.115,123.025,81.144,117.616,84.469,116.439Z" transform="translate(-81.951 -116.013)" fill="#7b5ef6"/>
    </g>
    <g id="Group_162685" data-name="Group 162685" transform="translate(7.491 43.865)">
      <path id="Path_20912" data-name="Path 20912" d="M59.817,120.842c1.641-1.063,4.388-.014,4.4,2.119a2.871,2.871,0,0,1-4.424,2.74A2.9,2.9,0,0,1,59.817,120.842Z" transform="translate(-58.488 -120.415)" fill="#7f5cf7"/>
      <path id="Path_20913" data-name="Path 20913" d="M110.711,120.846a2.877,2.877,0,0,1,4.26,1.541c.949,2.112-1.513,4.524-3.625,3.646C109.084,125.476,108.734,121.959,110.711,120.846Z" transform="translate(-73.079 -120.412)" fill="#7f5cf7"/>
    </g>
    <g id="Group_162686" data-name="Group 162686" transform="translate(25.659 51.355)">
      <path id="Path_20914" data-name="Path 20914" d="M85.62,131.138a2.992,2.992,0,0,1,4.11,2.7,2.909,2.909,0,0,1-4.559,2.34A2.943,2.943,0,0,1,85.62,131.138Z" transform="translate(-83.951 -130.909)" fill="#944efd"/>
    </g>
  </g>
</svg>
